<svg width="24" height="24" viewBox="0 0 24 24" fill="none" xmlns="http://www.w3.org/2000/svg">
<path d="M7.14973 0.2H16.8503C20.6821 0.2 23.8 3.31781 23.8 7.14973V16.8503C23.8 20.6822 20.6822 23.8 16.8503 23.8H7.14973C3.31781 23.8 0.2 20.6822 0.2 16.8503V7.14973C0.2 3.31781 3.31781 0.2 7.14973 0.2ZM16.8503 21.7856C19.576 21.7856 21.7856 19.576 21.7856 16.8503V7.14973C21.7856 4.424 19.576 2.2144 16.8503 2.2144H7.14973C4.42405 2.2144 2.2144 4.424 2.2144 7.14973V16.8503C2.2144 19.576 4.42404 21.7856 7.14973 21.7856H16.8503Z" fill="white" stroke="#212121" stroke-width="0.4"/>
<path d="M5.84248 11.9997C5.84248 8.60466 8.60466 5.84248 11.9997 5.84248C15.3948 5.84248 18.157 8.60462 18.157 11.9997C18.157 15.3948 15.3948 18.1569 11.9997 18.1569C8.60466 18.1569 5.84248 15.3947 5.84248 11.9997ZM8.15688 11.9997C8.15688 14.1221 9.87737 15.8426 11.9997 15.8426C14.1221 15.8426 15.8426 14.1221 15.8426 11.9997C15.8426 9.87737 14.1221 8.15688 11.9997 8.15688C9.87741 8.15688 8.15688 9.87737 8.15688 11.9997Z" fill="white" stroke="#212121" stroke-width="0.1"/>
<path d="M19.6566 5.83939C19.6566 6.63322 19.0131 7.27673 18.2193 7.27673C17.4255 7.27673 16.7819 6.63322 16.7819 5.83939C16.7819 5.04557 17.4255 4.40205 18.2193 4.40205C19.0131 4.40205 19.6566 5.04557 19.6566 5.83939Z" fill="white" stroke="#212121" stroke-width="0.1"/>
</svg>
