<svg width="204" height="24" viewBox="0 0 204 24" fill="none" xmlns="http://www.w3.org/2000/svg">
<path d="M0.723531 0.36V18H3.77153V15.312L5.66753 13.272L8.81153 18H12.3875L8.25953 11.712H7.03553L12.1475 6H8.42753L3.77153 11.112V0.36H0.723531ZM19.623 18.36C23.415 18.36 25.959 15.84 25.959 12C25.959 8.16 23.415 5.64 19.623 5.64C15.807 5.64 13.263 8.16 13.263 12C13.263 15.84 15.807 18.36 19.623 18.36ZM19.623 15.696C17.631 15.696 16.407 14.112 16.407 12C16.407 9.864 17.631 8.304 19.623 8.304C21.591 8.304 22.839 9.864 22.839 12C22.839 14.112 21.591 15.696 19.623 15.696ZM34.5952 8.304C35.9872 8.304 36.7072 9.24 36.7072 11.064V18H39.7552V10.464C39.7552 7.44 38.2432 5.64 35.7472 5.64C33.8992 5.64 32.2912 6.672 31.3792 8.256V6H28.3312V18H31.3792V12C31.3792 9.912 32.7712 8.304 34.5952 8.304ZM48.123 18.36C51.915 18.36 54.459 15.84 54.459 12C54.459 8.16 51.915 5.64 48.123 5.64C44.307 5.64 41.763 8.16 41.763 12C41.763 15.84 44.307 18.36 48.123 18.36ZM48.123 15.696C46.131 15.696 44.907 14.112 44.907 12C44.907 9.864 46.131 8.304 48.123 8.304C50.091 8.304 51.339 9.864 51.339 12C51.339 14.112 50.091 15.696 48.123 15.696ZM60.2872 9H63.6712V6H60.2872V2.352H58.3192L57.6232 5.976L55.5352 7.416V9H57.2392V13.176C57.2392 16.44 58.9192 18.36 61.7752 18.36C62.6152 18.36 63.2152 18.144 63.9832 17.832L63.5512 14.88C63.0712 15.072 61.4872 15.336 61.0072 15.192C60.2872 14.88 60.2872 13.296 60.2872 13.032V9ZM71.5839 18.36C75.3759 18.36 77.9199 15.84 77.9199 12C77.9199 8.16 75.3759 5.64 71.5839 5.64C67.7679 5.64 65.2239 8.16 65.2239 12C65.2239 15.84 67.7679 18.36 71.5839 18.36ZM71.5839 15.696C69.5919 15.696 68.3679 14.112 68.3679 12C68.3679 9.864 69.5919 8.304 71.5839 8.304C73.5519 8.304 74.7999 9.864 74.7999 12C74.7999 14.112 73.5519 15.696 71.5839 15.696ZM80.3642 23.64H83.4122V15.768C84.3722 17.352 85.9802 18.36 87.7802 18.36C90.7322 18.36 93.0602 15.816 93.0602 12C93.0602 8.184 90.7322 5.64 87.8042 5.64C85.9802 5.64 84.3722 6.624 83.4122 8.232V6H80.3642V23.64ZM86.7002 8.304C88.6442 8.304 89.9162 9.864 89.9162 12C89.9162 14.112 88.6442 15.696 86.7002 15.696C84.7562 15.696 83.4122 14.088 83.4122 12C83.4122 9.912 84.7562 8.304 86.7002 8.304ZM106.889 18L111.785 8.712L113.393 18H116.081L122.609 6H120.257L115.001 16.128L113.321 6H111.185L105.929 16.128L104.249 6H101.897L104.201 18H106.889ZM125.361 1.776C125.217 2.688 125.625 3.336 126.489 3.336C127.353 3.336 128.001 2.688 128.145 1.776C128.313 0.839999 127.905 0.191999 127.041 0.191999C126.177 0.191999 125.529 0.839999 125.361 1.776ZM122.937 18H126.753L127.161 15.768H125.481L126.969 7.344C127.113 6.576 126.969 5.976 126.345 6H123.513L123.153 8.136H124.665L122.937 18ZM134.306 8.136H138.17L138.554 6H134.69L135.338 2.352H133.922L132.794 5.976L130.466 6.984L130.274 8.136H132.146L131.234 13.368C130.658 16.584 131.81 18.36 134.45 18.36C135.266 18.36 135.938 18.144 136.682 17.808L136.73 15.696C136.178 15.936 134.882 16.2 134.33 16.104C132.938 15.888 133.322 13.728 133.394 13.272L134.306 8.136ZM146.397 5.64C142.869 5.64 139.917 8.256 139.269 12C138.597 15.744 140.613 18.36 144.141 18.36C145.653 18.36 147.117 17.856 148.437 16.872L148.269 15.096C147.093 15.936 145.893 16.416 144.669 16.416C142.317 16.416 141.045 14.616 141.525 12C141.981 9.36 143.901 7.56 146.229 7.56C147.453 7.56 148.485 8.064 149.373 8.88L150.165 7.104C149.181 6.12 147.909 5.64 146.397 5.64ZM151.41 18H153.57L154.626 12C155.058 9.528 157.146 7.56 159.306 7.56C161.058 7.56 161.754 8.784 161.346 11.088L160.122 18H162.282L163.602 10.608C164.154 7.488 162.954 5.64 160.41 5.64C158.37 5.64 156.402 6.936 155.178 8.808L156.666 0.36H154.506L151.41 18ZM177.611 8.304C179.003 8.304 179.723 9.24 179.723 11.064V18H182.771V10.464C182.771 7.44 181.259 5.64 178.763 5.64C176.915 5.64 175.307 6.672 174.395 8.256V6H171.347V18H174.395V12C174.395 9.912 175.787 8.304 177.611 8.304ZM184.827 9H186.627V15H184.827V18H192.987V15H189.675V9H193.083V6H188.643V5.376C188.571 3.6 190.083 3.264 191.019 3.264H197.523L197.067 5.976L194.979 7.416V9H196.683V13.176C196.683 16.44 198.387 18.36 201.219 18.36C202.059 18.36 202.659 18.144 203.427 17.832L203.019 14.88C202.515 15.072 200.931 15.336 200.451 15.192C199.755 14.856 199.755 13.296 199.755 13.032V9H203.115V6H199.755V1.824H199.731L199.755 0.0719991H191.019C188.187 0.0719991 186.627 2.208 186.627 4.224L187.347 6H184.827V9Z" fill="#212121"/>
</svg>
